<svg viewBox="0 0 128 128" xmlns="http://www.w3.org/2000/svg">
  <!-- Background circle for visibility -->
  <circle cx="64" cy="64" r="60" fill="#1a1a2e"/>

  <!-- Tail -->
  <path
    d="M 50 100 Q 64 125 78 100 Z"
    fill="#FF8C69"
    stroke="#8B3A3A"
    stroke-width="4"
    stroke-linejoin="round"
  />
  <!-- Left Claw -->
  <g>
    <path
      d="M 40 55 A 24 24 0 1 1 10 85 Q 20 80 25 75 Q 20 65 30 70 Z"
      fill="#FF8C69"
      stroke="#8B3A3A"
      stroke-width="4"
      stroke-linejoin="round"
    />
  </g>
  <!-- Right Claw -->
  <g>
    <path
      d="M 88 55 A 24 24 0 1 0 118 85 Q 108 80 103 75 Q 108 65 98 70 Z"
      fill="#FF8C69"
      stroke="#8B3A3A"
      stroke-width="4"
      stroke-linejoin="round"
    />
  </g>
  <!-- Body -->
  <g>
    <rect
      x="34"
      y="28"
      width="60"
      height="75"
      rx="30"
      fill="#FF8C69"
      stroke="#8B3A3A"
      stroke-width="4"
    />
    <!-- Belt/Band -->
    <path
      d="M 34 82 Q 64 92 94 82 L 94 88 Q 64 98 34 88 Z"
      fill="#008080"
      stroke="#006666"
      stroke-width="2"
    />
    <!-- Belt buckle -->
    <path
      d="M 75 85 L 88 108 L 68 102 Z"
      fill="#008080"
      stroke="#006666"
      stroke-width="2"
      stroke-linejoin="round"
    />
    <!-- Eyes -->
    <circle cx="48" cy="55" r="7" fill="#1A1A1A" />
    <circle cx="80" cy="55" r="7" fill="#1A1A1A" />
    <circle cx="46" cy="53" r="2.5" fill="#FFF" />
    <circle cx="78" cy="53" r="2.5" fill="#FFF" />
    <!-- Mouth -->
    <path
      d="M 60 68 Q 64 71 68 68"
      fill="none"
      stroke="#1A1A1A"
      stroke-width="2"
      stroke-linecap="round"
    />
  </g>
</svg>
