<svg xmlns="http://www.w3.org/2000/svg" viewBox="0 0 279.121 279.121">
  <g fill="#222220">
    <path d="M241.512 21.047h-96.208c-.017 0-.033 0-.05 0H37.609C16.872 21.047 0 37.918 0 58.656v161.809c0 20.738 16.872 37.609 37.609 37.609h203.902c20.738 0 37.609-16.871 37.609-37.609V58.656c.001-20.738-16.87-37.609-37.608-37.609zM15 220.465V58.656c0-12.467 10.143-22.609 22.609-22.609h95.375L80.597 136.081a7.504 7.504 0 0 0 .228 7.362 7.503 7.503 0 0 0 6.417 3.617h44.82v55.756c-9.79.509-19.426-.318-28.877-2.495-20.731-4.774-32.857-14.615-33.01-14.741-3.178-2.641-7.892-2.217-10.545.953-2.659 3.176-2.24 7.906.936 10.565.579.484 14.445 11.93 38.391 17.639 7.571 1.805 16.71 3.141 27.18 3.141 1.93 0 3.907-.047 5.926-.144v25.339H37.609C25.143 243.074 15 232.932 15 220.465zM264.121 220.465c0 12.467-10.143 22.609-22.609 22.609h-94.451v-26.943c15.182-2.509 32.242-7.998 50.702-18.222 3.624-2.007 4.934-6.57 2.927-10.194-2.007-3.622-6.571-4.935-10.195-2.927-14.697 8.139-29.206 13.545-43.435 16.218v-61.445c0-4.143-3.358-7.5-7.5-7.5H99.635l50.283-96.014h91.594c12.467 0 22.609 10.143 22.609 22.609V220.465z"/>
    <path d="M194.129 67.377c-4.142 0-7.5 3.357-7.5 7.5v33.972c0 4.143 3.358 7.5 7.5 7.5s7.5-3.357 7.5-7.5V74.877c0-4.143-3.358-7.5-7.5-7.5z"/>
    <path d="M65.379 67.377c-4.142 0-7.5 3.357-7.5 7.5v33.972c0 4.143 3.358 7.5 7.5 7.5s7.5-3.357 7.5-7.5V74.877c0-4.143-3.358-7.5-7.5-7.5z"/>
  </g>
</svg>
